<svg width="24" height="24" viewBox="0 0 44 48" fill="none" xmlns="http://www.w3.org/2000/svg">
<g clip-path="url(#clip0_601_14224)">
<path d="M27.2694 4.12169L23.0486 2.99072L19.4917 16.2654L16.2804 4.28093L12.0595 5.4119L15.5291 18.3602L6.88724 9.71841L3.79738 12.8083L13.2764 22.2874L1.47179 19.1243L0.34082 23.3451L13.2388 26.8011C13.0912 26.1642 13.0131 25.5006 13.0131 24.8187C13.0131 19.992 16.9258 16.0792 21.7525 16.0792C26.5792 16.0792 30.492 19.992 30.492 24.8187C30.492 25.4962 30.4148 26.1557 30.269 26.7889L41.9909 29.9297L43.1218 25.709L30.1725 22.2392L41.9779 19.0759L40.8469 14.8551L27.8981 18.3247L36.54 9.68293L33.4501 6.59307L24.1026 15.9406L27.2694 4.12169Z" fill="#FF4405"/>
<path d="M30.2567 26.838C29.8948 28.368 29.1308 29.7424 28.0825 30.8435L36.5745 39.3357L39.6644 36.2458L30.2567 26.838Z" fill="#FF4405"/>
<path d="M27.9968 30.9323C26.9359 32.0159 25.5951 32.8245 24.0916 33.2413L27.1817 44.7735L31.4025 43.6425L27.9968 30.9323Z" fill="#FF4405"/>
<path d="M23.934 33.2835C23.2364 33.4628 22.5053 33.5581 21.7518 33.5581C20.9446 33.5581 20.1629 33.4486 19.4208 33.2437L16.3279 44.7866L20.5487 45.9175L23.934 33.2835Z" fill="#FF4405"/>
<path d="M19.2715 33.2012C17.791 32.7638 16.4741 31.9448 15.4348 30.8581L6.92192 39.3711L10.0118 42.4609L19.2715 33.2012Z" fill="#FF4405"/>
<path d="M15.3647 30.7829C14.3432 29.6893 13.5992 28.3333 13.2451 26.827L1.48486 29.9781L2.61582 34.1989L15.3647 30.7829Z" fill="#FF4405"/>
</g>
<defs>
<clipPath id="clip0_601_14224">
<rect width="44" height="44" fill="white" transform="translate(0 2)"/>
</clipPath>
</defs>
</svg>
